<svg width="363" height="411" xmlns="http://www.w3.org/2000/svg">

 <g>
  <title>Layer 1</title>
  <g id="layer1">
   <g id="g3013">
    <polygon fill="#264de4" points="362.73400115966797,0 329.6880111694336,370.1990051269531 181.1449966430664,411.3800048828125 33.01099395751953,370.25701904296875 0,0 " id="polygon2989"/>
    <polygon fill="#2965f1" points="301.3969955444336,346.6260070800781 329.6369857788086,30.274002075195312 181.36699676513672,30.274002075195312 181.36699676513672,379.90301513671875 " id="polygon2991"/>
    <polygon fill="#ebebeb" points="75.67699432373047,167.59701538085938 79.74700164794922,213.00701904296875 181.36699676513672,213.00701904296875 181.36699676513672,167.59701538085938 " id="polygon2993"/>
    <polygon fill="#ebebeb" points="181.36699676513672,75.68499755859375 181.20999908447266,75.68499755859375 67.4990005493164,75.68499755859375 71.62699127197266,121.09600830078125 181.36699676513672,121.09600830078125 " id="polygon2995"/>
    <polygon fill="#ebebeb" points="181.36699676513672,332.77899169921875 181.36699676513672,285.53302001953125 181.1679916381836,285.58599853515625 130.59400177001953,271.92999267578125 127.36100006103516,235.7130126953125 102.78600311279297,235.7130126953125 81.77599334716797,235.7130126953125 88.13799285888672,307.0140075683594 181.15799713134766,332.8370056152344 " id="polygon2997"/>
    <polygon fill="#ffffff" points="237.12798309326172,213.00701904296875 231.85698699951172,271.9010009765625 181.20999908447266,285.5710144042969 181.20999908447266,332.81500244140625 274.3040084838867,307.0140075683594 274.9869918823242,299.3420104980469 285.6579818725586,179.791015625 286.76598358154297,167.59701538085938 294.96398162841797,75.68499755859375 181.20999908447266,75.68499755859375 181.20999908447266,121.09600830078125 245.19799041748047,121.09600830078125 241.06600189208984,167.59701538085938 181.20999908447266,167.59701538085938 181.20999908447266,213.00701904296875 " id="polygon3005"/>
   </g>
  </g>
 </g>
</svg>