<svg width="363" height="411" xmlns="http://www.w3.org/2000/svg"><polygon fill="#264de4" points="362.7340,0 329.6880,370.1990 181.1449,411.3800 33.01099,370.2570 0,0"/><polygon fill="#2965f1" points="301.3969,346.6260 329.6369,30.2740 181.3669,30.2740 181.3669,379.9030"/><polygon fill="#ebebeb" points="75.6769,167.5970 79.7470,213.0070 181.3669,213.0070 181.3669,167.5970"/><polygon fill="#ebebeb" points="181.3669,75.6849 181.2099,75.6849 67.4990,75.6849 71.6269,121.0960 181.3669,121.0960"/><polygon fill="#ebebeb" points="181.3669,332.7789 181.3669,285.5330 181.1679,285.5859 130.5940,271.9299 127.3610,235.7130 102.7860,235.7130 81.7759,235.7130 88.1379,307.0140 181.1579,332.8370"/><polygon fill="#ffffff" points="237.1279,213.0070 231.8569,271.9010 181.2099,285.5710 181.2099,332.8150 274.3040,307.0140 274.9869,299.3420 285.6579,179.7910 286.7659,167.5970 294.9639,75.6849 181.2099,75.6849 181.2099,121.0960 245.1979,121.0960 241.0660,167.5970 181.2099,167.5970 181.2099,213.0070"/></svg>