<svg width="333" height="452" xmlns="http://www.w3.org/2000/svg" xml:space="preserve" enable-background="new 0 0 354.346 659.055" version="1.1"><path id="svg_1" d="m107.37009,349.592c0,0 -17.265,10.049 12.301,13.44c35.824,4.09 54.13,3.501 93.596,-3.959c0,0 10.397,6.504 24.892,12.137c-88.501,37.917 -200.296,-2.197 -130.789,-21.618l0,0z" fill="#0074BD" clip-rule="evenodd" fill-rule="evenodd"/><path id="svg_2" d="m96.55009,300.104c0,0 -19.367,14.339 10.221,17.397c38.271,3.951 68.483,4.275 120.792,-5.792c0,0 7.218,7.332 18.585,11.339c-106.986,31.294 -226.147,2.462 -149.598,-22.944l0,0z" fill="#0074BD" clip-rule="evenodd" fill-rule="evenodd"/><path id="svg_3" d="m187.71309,216.145c21.818,25.115 -5.721,47.697 -5.721,47.697s55.367,-28.577 29.945,-64.38c-23.752,-33.373 -41.962,-49.951 56.623,-107.124c0.001,0 -154.754,38.641 -80.847,123.807l0,0z" fill="#EA2D2E" clip-rule="evenodd" fill-rule="evenodd"/><path id="svg_4" d="m304.76109,386.202c0,0 12.781,10.536 -14.077,18.684c-51.071,15.469 -212.604,20.135 -257.47,0.619c-16.117,-7.02 14.121,-16.75 23.635,-18.805c9.92,-2.146 15.584,-1.754 15.584,-1.754c-17.937,-12.631 -115.935,24.807 -49.772,35.544c180.429,29.246 328.895,-13.173 282.1,-34.288l0,0z" fill="#0074BD" clip-rule="evenodd" fill-rule="evenodd"/><path id="svg_5" d="m115.67909,248.822c0,0 -82.155,19.519 -29.092,26.613c22.412,2.999 67.063,2.309 108.685,-1.183c34.006,-2.854 68.133,-8.958 68.133,-8.958s-11.982,5.14 -20.657,11.06c-83.444,21.947 -244.612,11.726 -198.207,-10.712c39.227,-18.977 71.138,-16.82 71.138,-16.82l0,0z" fill="#0074BD" clip-rule="evenodd" fill-rule="evenodd"/><path id="svg_6" d="m263.06509,331.198c84.818,-44.063 45.597,-86.412 18.223,-80.708c-6.694,1.397 -9.697,2.607 -9.697,2.607s2.494,-3.907 7.243,-5.588c54.155,-19.03 95.794,56.146 -17.464,85.919c-0.001,0 1.302,-1.18 1.695,-2.23l0,0z" fill="#0074BD" clip-rule="evenodd" fill-rule="evenodd"/><path id="svg_7" d="m211.93809,0c0,0 46.963,46.99 -44.557,119.227c-73.393,57.969 -16.734,91.009 -0.026,128.778c-42.845,-38.653 -74.271,-72.684 -53.192,-104.352c30.954,-46.479 116.719,-69.021 97.775,-143.653l0,0z" fill="#EA2D2E" clip-rule="evenodd" fill-rule="evenodd"/><path id="svg_8" d="m124.01809,450.637c81.397,5.204 206.426,-2.896 209.385,-41.415c0,0 -5.688,14.602 -67.276,26.188c-69.481,13.081 -155.197,11.558 -206.016,3.167c0,0 10.411,8.617 63.907,12.06l0,0z" fill="#0074BD" clip-rule="evenodd" fill-rule="evenodd"/></svg>